<svg height="140" viewBox="0 0 740 1008" fill="none" xmlns="http://www.w3.org/2000/svg">
<path d="M217.694 968.41C220.958 968.41 223.916 968.053 226.568 967.339C229.22 966.625 231.719 965.707 234.065 964.585L235.748 970.093C232.994 971.521 230.087 972.541 227.027 973.153C224.069 973.867 220.652 974.224 216.776 974.224C211.982 974.224 207.443 973.459 203.159 971.929C198.977 970.399 195.254 968.104 191.99 965.044C188.828 961.984 186.278 958.159 184.34 953.569C182.504 948.877 181.586 943.42 181.586 937.198C181.586 931.486 182.453 926.335 184.187 921.745C185.921 917.155 188.369 913.279 191.531 910.117C194.693 906.853 198.365 904.405 202.547 902.773C206.831 901.039 211.523 900.172 216.623 900.172C219.785 900.172 222.845 900.427 225.803 900.937C228.761 901.345 231.974 902.365 235.442 903.997L233.606 910.27C230.852 908.842 228.2 907.873 225.65 907.363C223.202 906.853 220.652 906.598 218 906.598C213.818 906.598 209.993 907.312 206.525 908.74C203.057 910.168 200.099 912.208 197.651 914.86C195.203 917.41 193.265 920.572 191.837 924.346C190.511 928.018 189.848 932.149 189.848 936.739C189.848 942.859 190.664 947.959 192.296 952.039C193.928 956.017 196.019 959.23 198.569 961.678C201.221 964.126 204.179 965.86 207.443 966.88C210.809 967.9 214.226 968.41 217.694 968.41ZM308.152 936.28C308.152 942.298 307.336 947.704 305.704 952.498C304.072 957.19 301.777 961.168 298.819 964.432C295.963 967.594 292.597 970.042 288.721 971.776C284.845 973.408 280.612 974.224 276.022 974.224C271.534 974.224 267.301 973.459 263.323 971.929C259.447 970.297 256.081 967.951 253.225 964.891C250.369 961.831 248.125 958.057 246.493 953.569C244.861 948.979 244.045 943.726 244.045 937.81C244.045 931.792 244.861 926.437 246.493 921.745C248.227 917.053 250.573 913.126 253.531 909.964C256.489 906.7 259.957 904.252 263.935 902.62C267.913 900.988 272.146 900.172 276.634 900.172C281.122 900.172 285.304 900.937 289.18 902.467C293.056 903.997 296.371 906.292 299.125 909.352C301.981 912.412 304.174 916.186 305.704 920.674C307.336 925.162 308.152 930.364 308.152 936.28ZM299.89 937.045C299.89 931.741 299.227 927.202 297.901 923.428C296.575 919.552 294.79 916.39 292.546 913.942C290.404 911.392 287.905 909.556 285.049 908.434C282.193 907.21 279.235 906.598 276.175 906.598C273.115 906.598 270.157 907.21 267.301 908.434C264.445 909.556 261.895 911.392 259.651 913.942C257.407 916.39 255.622 919.552 254.296 923.428C252.97 927.202 252.307 931.741 252.307 937.045C252.307 942.655 252.97 947.398 254.296 951.274C255.724 955.15 257.56 958.312 259.804 960.76C262.048 963.208 264.598 964.993 267.454 966.115C270.412 967.237 273.421 967.798 276.481 967.798C279.541 967.798 282.448 967.288 285.202 966.268C288.058 965.146 290.557 963.361 292.699 960.913C294.943 958.465 296.677 955.303 297.901 951.427C299.227 947.449 299.89 942.655 299.89 937.045ZM385.1 936.28C385.1 942.298 384.284 947.704 382.652 952.498C381.02 957.19 378.725 961.168 375.767 964.432C372.911 967.594 369.545 970.042 365.669 971.776C361.793 973.408 357.56 974.224 352.97 974.224C348.482 974.224 344.249 973.459 340.271 971.929C336.395 970.297 333.029 967.951 330.173 964.891C327.317 961.831 325.073 958.057 323.441 953.569C321.809 948.979 320.993 943.726 320.993 937.81C320.993 931.792 321.809 926.437 323.441 921.745C325.175 917.053 327.521 913.126 330.479 909.964C333.437 906.7 336.905 904.252 340.883 902.62C344.861 900.988 349.094 900.172 353.582 900.172C358.07 900.172 362.252 900.937 366.128 902.467C370.004 903.997 373.319 906.292 376.073 909.352C378.929 912.412 381.122 916.186 382.652 920.674C384.284 925.162 385.1 930.364 385.1 936.28ZM376.838 937.045C376.838 931.741 376.175 927.202 374.849 923.428C373.523 919.552 371.738 916.39 369.494 913.942C367.352 911.392 364.853 909.556 361.997 908.434C359.141 907.21 356.183 906.598 353.123 906.598C350.063 906.598 347.105 907.21 344.249 908.434C341.393 909.556 338.843 911.392 336.599 913.942C334.355 916.39 332.57 919.552 331.244 923.428C329.918 927.202 329.255 931.741 329.255 937.045C329.255 942.655 329.918 947.398 331.244 951.274C332.672 955.15 334.508 958.312 336.752 960.76C338.996 963.208 341.546 964.993 344.402 966.115C347.36 967.237 350.369 967.798 353.429 967.798C356.489 967.798 359.396 967.288 362.15 966.268C365.006 965.146 367.505 963.361 369.647 960.913C371.891 958.465 373.625 955.303 374.849 951.427C376.175 947.449 376.838 942.655 376.838 937.045ZM411.712 946.684V973H403.756V864.37H411.712V937.504L447.82 901.09H457.765L427.471 931.384L459.142 973H449.656L422.269 936.127L411.712 946.684ZM472.187 973V901.09H480.143V973H472.187ZM476.318 882.577C474.686 882.577 473.258 882.067 472.034 881.047C470.912 879.925 470.351 878.395 470.351 876.457C470.351 874.417 470.912 872.836 472.034 871.714C473.156 870.592 474.533 870.031 476.165 870.031C477.695 870.031 479.021 870.592 480.143 871.714C481.367 872.734 481.979 874.315 481.979 876.457C481.979 878.497 481.418 880.027 480.296 881.047C479.174 882.067 477.848 882.577 476.318 882.577ZM558.313 937.045H507.058V939.187C507.058 948.163 509.455 955.201 514.249 960.301C519.145 965.299 525.775 967.798 534.139 967.798C540.769 967.798 546.991 966.676 552.805 964.432L554.641 970.552C551.989 971.674 548.776 972.541 545.002 973.153C541.33 973.867 537.556 974.224 533.68 974.224C528.886 974.224 524.347 973.51 520.063 972.082C515.881 970.654 512.209 968.461 509.047 965.503C505.885 962.443 503.386 958.618 501.55 954.028C499.714 949.336 498.796 943.726 498.796 937.198C498.796 931.588 499.561 926.488 501.091 921.898C502.621 917.308 504.814 913.432 507.67 910.27C510.526 907.006 513.892 904.507 517.768 902.773C521.644 901.039 525.979 900.172 530.773 900.172C534.853 900.172 538.576 900.937 541.942 902.467C545.41 903.895 548.317 905.986 550.663 908.74C553.111 911.494 554.998 914.809 556.324 918.685C557.65 922.561 558.313 926.845 558.313 931.537V937.045ZM550.051 930.619C550.051 927.661 549.694 924.754 548.98 921.898C548.266 918.94 547.093 916.339 545.461 914.095C543.931 911.851 541.891 910.066 539.341 908.74C536.893 907.312 533.884 906.598 530.314 906.598C524.092 906.598 518.89 908.689 514.708 912.871C510.628 917.053 508.18 922.969 507.364 930.619H550.051Z" fill="#777"/>
<path d="M0 370C0 70 173 0 370 0C567 0 740 70 740 370C740 670 567 740 370 740C173 740 0 670 0 370Z" fill="#FAFA00"/>
<path d="M346.787 183H395.467L544.473 557H487.483L446.521 453.111H292.765L252.397 557H196L346.787 183ZM307.606 409.775H430.492L405.559 345.067C398.831 328.049 392.696 311.624 387.156 295.794C381.615 279.963 376.074 263.737 370.533 247.114H369.346C363.805 263.737 358.067 279.765 352.13 295.2C346.194 310.635 339.861 327.257 333.133 345.067L307.606 409.775Z" fill="white"/>
</svg>
